<svg xmlns="http://www.w3.org/2000/svg" viewBox="0 0 905 488">
<g fill="#000000" fill-rule="evenodd">
<path d="M 887.009,460.518 C 886.364,461.511 877.116,460.580 872.171,460.591 C 867.226,460.602 862.283,460.589 857.339,460.586 C 852.395,460.583 847.451,460.574 842.507,460.571 C 837.563,460.569 832.619,460.569 827.674,460.572 C 822.730,460.575 817.786,460.585 812.841,460.590 C 807.897,460.595 802.952,460.602 798.007,460.602 C 793.063,460.601 788.118,460.591 783.174,460.589 C 778.230,460.587 770.279,461.273 768.343,460.592 C 766.408,459.910 768.929,458.359 771.562,456.502 C 774.194,454.645 780.630,452.549 784.136,449.448 C 787.642,446.346 791.281,442.207 792.597,437.892 C 793.913,433.577 793.069,428.158 792.032,423.559 C 790.995,418.959 788.304,414.693 786.375,410.297 C 784.445,405.901 782.425,401.557 780.455,397.183 C 778.484,392.809 776.504,388.424 774.550,384.053 C 772.597,379.682 770.653,375.359 768.734,370.957 C 766.815,366.555 764.949,362.068 763.037,357.639 C 761.126,353.211 759.195,348.801 757.265,344.384 C 755.336,339.968 753.417,335.538 751.462,331.139 C 749.507,326.740 747.498,322.373 745.536,317.991 C 743.574,313.610 741.662,309.206 739.690,304.851 C 737.718,300.496 737.177,294.042 733.705,291.861 C 730.234,289.680 723.807,291.778 718.861,291.764 C 713.916,291.749 708.975,291.771 704.031,291.772 C 699.087,291.774 694.143,291.774 689.198,291.774 C 684.254,291.774 679.309,291.772 674.365,291.773 C 669.420,291.774 664.476,291.776 659.532,291.780 C 654.588,291.783 649.645,291.790 644.702,291.792 C 639.758,291.793 634.815,291.788 629.871,291.788 C 624.927,291.789 619.984,291.810 615.038,291.794 C 610.092,291.778 603.766,289.739 600.195,291.692 C 596.624,293.646 595.656,299.446 593.612,303.516 C 591.568,307.585 590.473,315.886 587.930,316.111 C 585.387,316.335 580.645,308.781 578.354,304.863 C 576.063,300.946 574.038,296.907 574.184,292.605 C 574.329,288.303 577.558,283.566 579.227,279.050 C 580.896,274.533 582.531,270.006 584.198,265.506 C 585.864,261.006 587.558,256.545 589.226,252.051 C 590.895,247.556 592.528,243.039 594.208,238.539 C 595.889,234.040 597.597,229.536 599.307,225.053 C 601.016,220.569 602.776,216.132 604.465,211.637 C 606.154,207.143 607.779,202.581 609.440,198.088 C 611.100,193.594 612.754,189.160 614.426,184.676 C 616.099,180.192 617.796,175.671 619.473,171.182 C 621.149,166.694 622.817,162.228 624.485,157.743 C 626.153,153.259 627.815,148.780 629.481,144.275 C 631.146,139.770 632.806,135.215 634.479,130.711 C 636.151,126.207 637.849,121.761 639.516,117.251 C 641.184,112.742 642.816,108.165 644.484,103.655 C 646.152,99.144 647.858,94.688 649.526,90.188 C 651.193,85.688 652.823,81.163 654.491,76.654 C 656.158,72.144 657.840,67.627 659.531,63.129 C 661.223,58.630 662.964,54.160 664.640,49.660 C 666.315,45.160 667.908,40.622 669.585,36.130 C 671.262,31.637 672.832,24.571 674.701,22.708 C 676.571,20.845 678.841,22.382 680.803,24.953 C 682.766,27.523 684.638,33.715 686.477,38.130 C 688.315,42.544 690.014,47.004 691.834,51.438 C 693.654,55.871 695.591,60.290 697.396,64.730 C 699.200,69.170 700.871,73.630 702.661,78.078 C 704.452,82.526 706.333,86.973 708.137,91.418 C 709.941,95.863 711.706,100.293 713.487,104.749 C 715.268,109.204 717.000,113.717 718.823,118.151 C 720.645,122.584 722.617,126.909 724.421,131.352 C 726.224,135.795 727.830,140.356 729.646,144.808 C 731.461,149.259 733.495,153.623 735.314,158.061 C 737.133,162.500 738.739,166.999 740.559,171.439 C 742.379,175.879 744.410,180.252 746.234,184.701 C 748.059,189.149 749.703,193.683 751.507,198.130 C 753.312,202.578 755.229,206.952 757.061,211.387 C 758.894,215.822 760.698,220.288 762.502,224.740 C 764.306,229.191 766.056,233.660 767.885,238.095 C 769.715,242.530 771.657,246.929 773.479,251.347 C 775.302,255.766 777.000,260.177 778.821,264.607 C 780.641,269.037 782.582,273.491 784.402,277.928 C 786.223,282.365 787.903,286.818 789.745,291.231 C 791.588,295.643 793.600,299.978 795.458,304.402 C 797.316,308.827 799.049,313.323 800.892,317.775 C 802.735,322.227 804.642,326.686 806.517,331.115 C 808.392,335.545 810.297,339.926 812.141,344.353 C 813.985,348.780 815.706,353.268 817.581,357.679 C 819.457,362.090 821.504,366.420 823.392,370.822 C 825.281,375.224 827.028,379.676 828.914,384.092 C 830.801,388.508 832.765,392.903 834.711,397.316 C 836.656,401.728 838.609,406.178 840.586,410.567 C 842.563,414.956 844.370,419.373 846.573,423.649 C 848.775,427.926 850.946,432.306 853.800,436.226 C 856.654,440.145 859.991,444.097 863.697,447.165 C 867.403,450.232 872.153,452.407 876.038,454.633 C 879.924,456.859 887.653,459.525 887.009,460.518 Z M 720.930,271.412 C 719.251,271.476 717.511,271.394 715.803,271.391 C 714.095,271.388 712.388,271.393 710.681,271.394 C 708.974,271.396 707.267,271.399 705.560,271.401 C 703.853,271.402 702.145,271.403 700.437,271.404 C 698.730,271.405 697.022,271.406 695.314,271.407 C 693.607,271.408 691.899,271.409 690.192,271.411 C 688.484,271.412 686.777,271.414 685.069,271.416 C 683.362,271.417 681.655,271.419 679.947,271.421 C 678.240,271.423 676.532,271.424 674.825,271.426 C 673.117,271.427 671.410,271.428 669.702,271.429 C 667.994,271.430 666.287,271.431 664.579,271.432 C 662.871,271.433 661.164,271.434 659.456,271.434 C 657.749,271.435 656.041,271.435 654.334,271.436 C 652.627,271.436 650.919,271.436 649.212,271.437 C 647.504,271.437 645.797,271.438 644.090,271.438 C 642.382,271.439 640.675,271.440 638.967,271.441 C 637.260,271.441 635.552,271.442 633.844,271.444 C 632.137,271.445 630.429,271.447 628.721,271.448 C 627.013,271.450 625.305,271.452 623.598,271.451 C 621.891,271.449 620.187,271.442 618.479,271.441 C 616.772,271.441 615.058,271.444 613.351,271.448 C 611.644,271.451 609.244,271.992 608.238,271.461 C 607.231,270.929 607.209,269.580 607.313,268.261 C 607.417,266.942 608.317,265.101 608.862,263.546 C 609.406,261.991 609.993,260.488 610.580,258.930 C 611.166,257.373 611.790,255.763 612.380,254.202 C 612.971,252.640 613.567,251.122 614.122,249.561 C 614.676,247.999 615.141,246.393 615.708,244.831 C 616.276,243.269 616.912,241.732 617.527,240.188 C 618.143,238.644 618.815,237.121 619.401,235.566 C 619.987,234.011 620.491,232.424 621.042,230.857 C 621.593,229.289 622.139,227.720 622.710,226.160 C 623.280,224.600 623.865,223.043 624.465,221.494 C 625.065,219.946 625.731,218.423 626.309,216.867 C 626.886,215.311 627.387,213.731 627.930,212.160 C 628.474,210.588 628.985,208.995 629.569,207.438 C 630.152,205.881 630.830,204.364 631.433,202.819 C 632.037,201.273 632.636,199.723 633.189,198.165 C 633.743,196.606 634.200,195.029 634.754,193.470 C 635.308,191.911 635.923,190.357 636.513,188.808 C 637.104,187.259 637.740,185.739 638.299,184.174 C 638.858,182.608 639.338,181.000 639.865,179.414 C 640.393,177.828 640.890,176.212 641.463,174.658 C 642.037,173.104 642.725,171.645 643.307,170.092 C 643.890,168.540 644.423,166.926 644.959,165.345 C 645.496,163.764 645.957,162.166 646.526,160.607 C 647.095,159.047 647.815,157.552 648.375,155.989 C 648.934,154.425 649.359,152.806 649.880,151.225 C 650.402,149.643 650.926,148.054 651.503,146.501 C 652.081,144.947 652.813,143.462 653.346,141.902 C 653.880,140.343 654.179,138.715 654.705,137.142 C 655.231,135.569 655.908,134.023 656.502,132.464 C 657.096,130.906 657.729,129.367 658.270,127.790 C 658.812,126.213 659.213,124.580 659.750,123.003 C 660.287,121.426 660.861,119.030 661.492,118.326 C 662.123,117.622 662.871,117.935 663.535,118.778 C 664.199,119.620 664.836,121.848 665.477,123.380 C 666.118,124.912 666.766,126.432 667.381,127.969 C 667.995,129.506 668.577,131.053 669.166,132.602 C 669.755,134.151 670.291,135.726 670.912,137.262 C 671.534,138.797 672.271,140.281 672.895,141.816 C 673.518,143.352 674.043,144.928 674.653,146.473 C 675.263,148.019 675.919,149.557 676.555,151.090 C 677.191,152.623 677.835,154.139 678.470,155.671 C 679.104,157.203 679.731,158.747 680.362,160.284 C 680.993,161.822 681.642,163.348 682.256,164.895 C 682.869,166.442 683.453,168.014 684.044,169.567 C 684.635,171.120 685.197,172.666 685.802,174.214 C 686.406,175.762 687.035,177.323 687.670,178.853 C 688.305,180.384 688.960,181.885 689.611,183.397 C 690.261,184.908 690.926,186.395 691.573,187.923 C 692.220,189.451 692.854,191.026 693.494,192.564 C 694.133,194.102 694.771,195.613 695.409,197.151 C 696.046,198.690 696.686,200.255 697.319,201.795 C 697.952,203.336 698.574,204.859 699.207,206.393 C 699.840,207.927 700.477,209.455 701.116,211.001 C 701.754,212.547 702.399,214.117 703.037,215.670 C 703.676,217.224 704.324,218.772 704.948,220.320 C 705.573,221.868 706.145,223.424 706.784,224.958 C 707.423,226.493 708.131,227.998 708.780,229.527 C 709.429,231.055 710.044,232.591 710.679,234.132 C 711.313,235.672 711.951,237.225 712.589,238.769 C 713.228,240.313 713.866,241.859 714.509,243.395 C 715.153,244.931 715.804,246.455 716.449,247.984 C 717.095,249.512 717.728,251.037 718.383,252.565 C 719.037,254.094 719.735,255.619 720.375,257.154 C 721.014,258.690 721.603,260.236 722.217,261.776 C 722.831,263.315 723.450,264.854 724.059,266.391 C 724.668,267.929 726.393,270.166 725.871,271.003 C 725.350,271.839 722.608,271.347 720.930,271.412 Z"/>
<path d="M 699.993,463.254 C 697.268,464.159 687.540,463.648 681.333,463.476 C 675.125,463.305 668.847,463.081 662.748,462.225 C 656.650,461.369 650.559,460.135 644.742,458.341 C 638.925,456.546 633.313,454.131 627.845,451.459 C 622.378,448.788 617.064,445.679 611.938,442.314 C 606.812,438.949 601.870,435.195 597.091,431.270 C 592.311,427.344 587.705,423.103 583.261,418.762 C 578.817,414.420 574.641,409.788 570.426,405.222 C 566.212,400.656 562.074,396.028 557.973,391.366 C 553.872,386.705 549.859,381.963 545.819,377.254 C 541.780,372.545 537.747,367.842 533.737,363.113 C 529.726,358.385 525.733,353.642 521.758,348.883 C 517.782,344.123 513.867,339.306 509.885,334.554 C 505.904,329.803 501.804,325.149 497.868,320.375 C 493.933,315.600 490.199,310.690 486.273,305.907 C 482.347,301.124 478.242,296.457 474.315,291.677 C 470.387,286.897 466.589,282.044 462.708,277.227 C 458.828,272.411 454.964,267.567 451.031,262.776 C 447.097,257.986 443.029,253.283 439.108,248.485 C 435.186,243.687 431.532,237.317 427.501,233.986 C 423.470,230.656 419.355,227.393 414.922,228.503 C 410.488,229.613 405.324,236.324 400.898,240.646 C 396.471,244.968 392.234,249.623 388.363,254.434 C 384.492,259.246 380.924,264.336 377.671,269.516 C 374.419,274.697 371.428,280.050 368.848,285.519 C 366.267,290.989 364.028,296.569 362.189,302.334 C 360.349,308.100 358.759,314.060 357.809,320.111 C 356.859,326.163 356.546,332.457 356.490,338.644 C 356.434,344.831 356.677,351.126 357.473,357.234 C 358.269,363.341 362.669,374.252 361.267,375.290 C 359.864,376.328 353.036,367.847 349.060,363.463 C 345.084,359.078 341.260,353.824 337.411,348.982 C 333.561,344.140 329.687,339.322 325.964,334.411 C 322.242,329.500 316.968,324.682 315.075,319.515 C 313.182,314.348 313.252,308.753 314.606,303.406 C 315.960,298.059 319.984,292.592 323.199,287.433 C 326.415,282.274 330.177,277.359 333.899,272.453 C 337.622,267.548 341.405,262.617 345.535,258.000 C 349.665,253.382 354.203,249.063 358.680,244.749 C 363.157,240.434 367.690,236.145 372.396,232.114 C 377.102,228.084 382.027,224.330 386.917,220.566 C 391.807,216.802 399.844,213.800 401.737,209.529 C 403.631,205.258 400.570,199.921 398.276,194.943 C 395.982,189.964 391.157,184.835 387.971,179.656 C 384.785,174.477 381.853,169.241 379.160,163.868 C 376.466,158.495 373.899,153.073 371.811,147.417 C 369.724,141.762 367.851,135.918 366.635,129.937 C 365.418,123.957 364.708,117.698 364.512,111.535 C 364.316,105.372 364.634,99.041 365.460,92.960 C 366.285,86.879 367.517,80.758 369.466,75.050 C 371.415,69.342 373.982,63.878 377.152,58.713 C 380.321,53.548 384.218,48.458 388.485,44.060 C 392.751,39.662 397.664,35.610 402.751,32.326 C 407.838,29.042 413.373,26.464 419.006,24.353 C 424.639,22.243 430.516,20.498 436.548,19.665 C 442.581,18.832 449.032,19.046 455.201,19.354 C 461.369,19.662 467.645,20.112 473.559,21.512 C 479.474,22.912 485.259,25.041 490.686,27.754 C 496.114,30.467 501.434,33.853 506.126,37.788 C 510.818,41.723 515.145,46.500 518.839,51.364 C 522.533,56.228 525.792,61.487 528.292,66.972 C 530.793,72.458 532.650,78.314 533.841,84.277 C 535.031,90.241 535.631,96.639 535.434,102.754 C 535.236,108.869 534.139,115.083 532.657,120.967 C 531.174,126.852 529.194,132.620 526.540,138.061 C 523.886,143.503 520.463,148.734 516.733,153.618 C 513.003,158.501 508.619,163.072 504.161,167.364 C 499.702,171.655 494.898,175.674 489.982,179.367 C 485.066,183.060 479.423,186.261 474.664,189.523 C 469.904,192.786 461.698,194.959 461.425,198.942 C 461.153,202.925 469.127,208.610 473.029,213.421 C 476.931,218.232 480.901,223.019 484.836,227.807 C 488.771,232.594 492.739,237.339 496.639,242.146 C 500.539,246.954 504.315,251.859 508.235,256.651 C 512.155,261.442 516.229,266.113 520.161,270.897 C 524.092,275.681 527.912,280.560 531.825,285.355 C 535.738,290.150 539.700,294.895 543.637,299.667 C 547.574,304.438 551.484,309.233 555.448,313.982 C 559.413,318.732 563.473,323.396 567.424,328.164 C 571.375,332.933 575.188,337.826 579.154,342.594 C 583.120,347.362 587.182,352.055 591.221,356.771 C 595.259,361.487 599.337,366.183 603.384,370.891 C 607.431,375.599 611.423,380.341 615.504,385.020 C 619.585,389.698 623.742,394.322 627.872,398.963 C 632.003,403.603 636.101,408.272 640.289,412.863 C 644.477,417.454 648.621,422.104 653.000,426.509 C 657.379,430.914 661.867,435.278 666.565,439.295 C 671.263,443.312 676.003,447.485 681.189,450.610 C 686.376,453.734 694.549,455.935 697.683,458.042 C 700.817,460.150 702.718,462.348 699.993,463.254 Z M 446.335,178.911 C 445.448,177.997 444.764,176.683 443.944,175.578 C 443.123,174.474 442.232,173.398 441.413,172.284 C 440.593,171.169 439.839,170.012 439.027,168.893 C 438.214,167.773 437.320,166.697 436.536,165.565 C 435.752,164.434 435.069,163.261 434.322,162.105 C 433.575,160.948 432.805,159.793 432.056,158.628 C 431.307,157.462 430.511,156.292 429.828,155.111 C 429.146,153.931 428.623,152.734 427.963,151.545 C 427.303,150.355 426.531,149.173 425.869,147.973 C 425.206,146.773 424.604,145.551 423.986,144.345 C 423.367,143.139 422.753,141.947 422.158,140.736 C 421.563,139.525 420.986,138.322 420.416,137.079 C 419.846,135.837 419.295,134.535 418.739,133.282 C 418.182,132.030 417.602,130.819 417.079,129.564 C 416.556,128.309 416.072,127.034 415.600,125.752 C 415.127,124.471 414.716,123.147 414.245,121.873 C 413.774,120.600 413.219,119.388 412.774,118.111 C 412.329,116.833 411.958,115.522 411.575,114.208 C 411.193,112.894 410.824,111.559 410.480,110.224 C 410.136,108.888 409.804,107.548 409.510,106.196 C 409.216,104.843 408.891,103.489 408.717,102.110 C 408.543,100.731 408.649,99.305 408.467,97.924 C 408.285,96.543 407.784,95.208 407.623,93.825 C 407.462,92.442 407.522,91.025 407.502,89.625 C 407.481,88.225 407.494,86.826 407.501,85.426 C 407.509,84.025 407.408,82.605 407.546,81.221 C 407.684,79.837 408.130,78.496 408.329,77.122 C 408.529,75.748 408.518,74.337 408.743,72.977 C 408.968,71.618 409.268,70.255 409.680,68.965 C 410.092,67.674 410.683,66.486 411.215,65.235 C 411.748,63.983 412.283,62.704 412.876,61.457 C 413.470,60.210 414.083,58.940 414.776,57.751 C 415.468,56.562 416.223,55.442 417.033,54.325 C 417.843,53.207 418.726,52.104 419.634,51.045 C 420.543,49.986 421.458,48.912 422.483,47.971 C 423.509,47.030 424.674,46.225 425.787,45.398 C 426.901,44.571 427.989,43.740 429.164,43.008 C 430.339,42.275 431.584,41.599 432.837,41.004 C 434.090,40.409 435.396,39.899 436.682,39.437 C 437.968,38.975 439.237,38.577 440.555,38.233 C 441.873,37.890 443.238,37.658 444.589,37.376 C 445.941,37.093 447.285,36.682 448.664,36.539 C 450.043,36.396 451.460,36.510 452.860,36.519 C 454.261,36.528 455.688,36.427 457.065,36.593 C 458.441,36.758 459.774,37.220 461.121,37.511 C 462.469,37.801 463.815,38.028 465.150,38.335 C 466.486,38.642 467.818,38.971 469.133,39.355 C 470.449,39.739 471.794,40.114 473.044,40.639 C 474.293,41.165 475.448,41.844 476.631,42.509 C 477.813,43.174 478.995,43.863 480.139,44.627 C 481.282,45.392 482.433,46.194 483.491,47.097 C 484.550,48.000 485.509,49.047 486.489,50.045 C 487.469,51.043 488.490,52.010 489.372,53.084 C 490.253,54.158 491.028,55.335 491.778,56.489 C 492.528,57.643 493.187,58.816 493.871,60.007 C 494.554,61.198 495.277,62.402 495.878,63.637 C 496.479,64.871 496.994,66.132 497.475,67.413 C 497.957,68.695 498.378,70.010 498.767,71.326 C 499.156,72.643 499.509,73.972 499.808,75.313 C 500.107,76.654 500.288,78.022 500.561,79.372 C 500.834,80.723 501.243,82.045 501.445,83.415 C 501.647,84.786 501.658,86.203 501.774,87.596 C 501.890,88.989 502.122,90.382 502.140,91.772 C 502.159,93.162 501.995,94.543 501.883,95.934 C 501.772,97.326 501.589,98.731 501.472,100.122 C 501.355,101.514 501.342,102.903 501.181,104.282 C 501.020,105.661 500.784,107.042 500.505,108.396 C 500.226,109.749 499.838,111.065 499.507,112.401 C 499.175,113.738 498.892,115.100 498.514,116.416 C 498.136,117.731 497.719,119.022 497.237,120.295 C 496.756,121.568 496.159,122.791 495.627,124.053 C 495.096,125.316 494.586,126.614 494.047,127.868 C 493.509,129.123 492.974,130.360 492.396,131.581 C 491.817,132.801 491.183,133.989 490.577,135.191 C 489.970,136.392 489.419,137.596 488.758,138.788 C 488.098,139.979 487.333,141.165 486.613,142.340 C 485.893,143.514 485.190,144.687 484.438,145.836 C 483.685,146.985 482.918,148.124 482.099,149.234 C 481.280,150.345 480.396,151.421 479.524,152.500 C 478.653,153.580 477.722,154.618 476.868,155.710 C 476.014,156.803 475.300,157.994 474.401,159.057 C 473.502,160.119 472.459,161.085 471.476,162.083 C 470.493,163.081 469.494,164.057 468.502,165.044 C 467.511,166.032 466.531,167.036 465.525,168.010 C 464.519,168.984 463.524,169.980 462.467,170.888 C 461.409,171.796 460.255,172.572 459.180,173.459 C 458.105,174.346 457.101,175.335 456.017,176.209 C 454.933,177.084 453.800,177.898 452.674,178.708 C 451.548,179.517 450.318,181.030 449.261,181.064 C 448.205,181.098 447.221,179.826 446.335,178.911 Z"/>
<path d="M 455.992,470.127 C 449.770,470.681 443.399,470.614 437.119,470.522 C 430.840,470.430 424.545,470.125 418.317,469.575 C 412.088,469.024 405.826,468.401 399.746,467.219 C 393.667,466.036 387.721,464.307 381.840,462.479 C 375.960,460.651 370.130,458.576 364.463,456.252 C 358.797,453.929 353.245,451.411 347.843,448.536 C 342.441,445.662 337.225,442.385 332.052,439.007 C 326.879,435.628 321.768,432.049 316.808,428.265 C 311.847,424.481 306.979,420.475 302.288,416.305 C 297.596,412.135 293.151,407.652 288.658,403.244 C 284.166,398.836 279.688,394.398 275.332,389.856 C 270.977,385.314 266.708,380.678 262.527,375.993 C 258.346,371.309 254.280,366.547 250.246,361.749 C 246.213,356.951 242.236,352.093 238.326,347.205 C 234.415,342.317 230.570,337.378 226.783,332.420 C 222.995,327.463 219.289,322.474 215.603,317.460 C 211.917,312.446 208.306,307.386 204.667,302.337 C 201.028,297.289 197.325,292.262 193.769,287.169 C 190.212,282.076 187.842,275.031 183.330,271.779 C 178.818,268.527 172.616,268.344 166.694,267.655 C 160.773,266.966 154.098,267.648 147.800,267.644 C 141.502,267.639 135.203,267.635 128.905,267.629 C 122.608,267.623 113.956,265.183 110.015,267.607 C 106.073,270.032 106.043,276.597 105.258,282.174 C 104.473,287.751 105.303,294.770 105.307,301.068 C 105.312,307.366 105.290,313.664 105.285,319.962 C 105.280,326.260 105.277,332.558 105.276,338.856 C 105.275,345.154 105.277,351.452 105.280,357.750 C 105.282,364.048 105.287,370.346 105.290,376.645 C 105.293,382.943 105.289,389.241 105.298,395.539 C 105.306,401.837 105.039,408.182 105.340,414.433 C 105.641,420.685 105.186,427.365 107.104,433.050 C 109.023,438.734 112.569,444.481 116.852,448.543 C 121.134,452.605 131.474,455.407 132.800,457.423 C 134.127,459.439 129.293,460.108 124.813,460.637 C 120.333,461.166 112.218,460.603 105.920,460.596 C 99.623,460.590 93.325,460.597 87.027,460.597 C 80.729,460.597 74.431,460.597 68.133,460.594 C 61.835,460.591 55.538,460.582 49.240,460.580 C 42.943,460.578 34.933,461.091 30.347,460.581 C 25.761,460.071 20.427,459.414 21.723,457.521 C 23.019,455.628 33.516,453.056 38.123,449.223 C 42.730,445.391 47.121,440.042 49.367,434.525 C 51.613,429.008 51.234,422.337 51.598,416.121 C 51.961,409.904 51.559,403.525 51.549,397.227 C 51.539,390.929 51.540,384.631 51.537,378.332 C 51.533,372.034 51.532,365.736 51.530,359.438 C 51.528,353.139 51.526,346.841 51.524,340.543 C 51.523,334.245 51.521,327.946 51.520,321.648 C 51.519,315.350 51.518,309.052 51.517,302.753 C 51.517,296.455 51.516,290.157 51.516,283.859 C 51.515,277.560 51.515,271.262 51.515,264.964 C 51.515,258.666 51.515,252.367 51.515,246.069 C 51.515,239.771 51.515,233.472 51.515,227.174 C 51.515,220.876 51.516,214.578 51.516,208.279 C 51.517,201.981 51.517,195.683 51.517,189.385 C 51.518,183.086 51.518,176.788 51.519,170.490 C 51.519,164.192 51.520,157.893 51.520,151.595 C 51.521,145.297 51.521,138.999 51.522,132.700 C 51.522,126.402 51.522,120.104 51.523,113.806 C 51.523,107.507 51.523,101.209 51.523,94.911 C 51.523,88.613 51.523,82.315 51.523,76.016 C 51.523,69.718 52.416,63.184 51.520,57.120 C 50.625,51.056 49.407,44.512 46.150,39.631 C 42.893,34.750 34.550,30.688 31.980,27.834 C 29.410,24.980 27.789,23.396 30.729,22.507 C 33.670,21.618 43.326,22.501 49.625,22.501 C 55.923,22.500 62.221,22.504 68.519,22.506 C 74.817,22.507 81.116,22.508 87.414,22.509 C 93.712,22.510 100.010,22.511 106.309,22.511 C 112.607,22.512 118.905,22.513 125.203,22.514 C 131.502,22.515 137.800,22.516 144.098,22.517 C 150.396,22.518 156.695,22.479 162.993,22.521 C 169.290,22.563 175.614,22.463 181.882,22.772 C 188.150,23.081 194.405,23.651 200.600,24.375 C 206.794,25.099 213.013,25.822 219.049,27.114 C 225.084,28.406 231.080,30.044 236.812,32.127 C 242.545,34.211 248.087,36.630 253.445,39.617 C 258.802,42.604 264.097,46.144 268.958,50.049 C 273.818,53.955 278.498,58.367 282.609,63.050 C 286.720,67.732 290.479,72.880 293.625,78.145 C 296.772,83.410 299.343,88.927 301.487,94.639 C 303.632,100.352 305.172,106.375 306.490,112.420 C 307.809,118.465 308.890,124.678 309.398,130.907 C 309.905,137.135 309.817,143.531 309.535,149.792 C 309.254,156.053 308.692,162.353 307.709,168.474 C 306.726,174.595 305.381,180.625 303.636,186.517 C 301.892,192.409 299.893,198.294 297.244,203.828 C 294.595,209.361 291.435,214.751 287.742,219.720 C 284.050,224.689 279.654,229.403 275.090,233.642 C 270.526,237.880 265.537,241.848 260.360,245.150 C 255.182,248.453 247.039,250.188 244.026,253.456 C 241.013,256.725 240.706,260.369 242.281,264.763 C 243.856,269.156 249.692,274.841 253.478,279.817 C 257.264,284.792 261.223,289.652 264.996,294.616 C 268.769,299.581 272.318,304.656 276.114,309.602 C 279.910,314.548 283.901,319.376 287.774,324.292 C 291.648,329.208 295.449,334.197 299.354,339.101 C 303.260,344.005 307.264,348.839 311.206,353.718 C 315.149,358.596 319.001,363.540 323.009,368.370 C 327.016,373.199 331.089,377.987 335.253,382.695 C 339.416,387.403 343.681,392.038 347.989,396.617 C 352.296,401.196 356.516,405.885 361.098,410.168 C 365.679,414.450 370.531,418.518 375.478,422.312 C 380.425,426.106 385.462,429.839 390.779,432.932 C 396.097,436.025 401.694,438.630 407.383,440.870 C 413.071,443.109 418.890,445.097 424.910,446.369 C 430.930,447.640 437.275,448.314 443.503,448.498 C 449.730,448.683 456.196,448.453 462.275,447.476 C 468.354,446.499 474.242,444.742 479.977,442.636 C 485.712,440.530 491.397,437.971 496.684,434.840 C 501.971,431.709 506.992,427.929 511.696,423.848 C 516.401,419.768 520.747,414.441 524.908,410.358 C 529.070,406.275 532.839,398.796 536.666,399.350 C 540.493,399.904 547.869,408.785 547.868,413.683 C 547.866,418.581 540.736,423.995 536.656,428.736 C 532.576,433.478 528.109,438.046 523.388,442.132 C 518.666,446.218 513.571,450.010 508.325,453.254 C 503.078,456.498 497.553,459.273 491.907,461.597 C 486.262,463.920 480.437,465.775 474.451,467.197 C 468.465,468.619 462.214,469.573 455.992,470.127 Z M 167.593,248.530 C 165.249,248.610 162.884,248.488 160.532,248.483 C 158.180,248.477 155.832,248.494 153.482,248.498 C 151.131,248.502 148.781,248.507 146.431,248.508 C 144.080,248.509 141.729,248.507 139.378,248.506 C 137.026,248.504 134.675,248.501 132.324,248.499 C 129.972,248.497 127.621,248.495 125.271,248.495 C 122.921,248.496 120.575,248.503 118.223,248.501 C 115.871,248.499 113.307,248.755 111.160,248.485 C 109.013,248.215 106.318,248.332 105.342,246.880 C 104.367,245.427 105.313,242.132 105.306,239.770 C 105.298,237.407 105.301,235.055 105.297,232.702 C 105.293,230.349 105.285,228.002 105.279,225.651 C 105.274,223.301 105.270,220.950 105.266,218.600 C 105.262,216.249 105.259,213.899 105.256,211.548 C 105.253,209.197 105.251,206.847 105.249,204.496 C 105.248,202.145 105.247,199.795 105.246,197.444 C 105.245,195.093 105.244,192.743 105.244,190.392 C 105.244,188.041 105.244,185.690 105.244,183.339 C 105.244,180.989 105.245,178.638 105.245,176.287 C 105.246,173.936 105.246,171.585 105.247,169.234 C 105.248,166.884 105.249,164.533 105.249,162.182 C 105.250,159.831 105.251,157.480 105.251,155.129 C 105.252,152.778 105.252,150.428 105.253,148.077 C 105.253,145.726 105.253,143.375 105.253,141.024 C 105.252,138.674 105.252,136.323 105.251,133.972 C 105.251,131.621 105.250,129.271 105.249,126.920 C 105.248,124.569 105.247,122.218 105.246,119.868 C 105.245,117.517 105.243,115.166 105.242,112.816 C 105.240,110.465 105.239,108.114 105.237,105.764 C 105.236,103.413 105.234,101.062 105.232,98.712 C 105.230,96.361 105.229,94.010 105.227,91.660 C 105.225,89.309 105.223,86.958 105.222,84.608 C 105.220,82.257 105.218,79.906 105.217,77.555 C 105.215,75.205 105.213,72.854 105.212,70.503 C 105.210,68.153 105.209,65.802 105.207,63.451 C 105.206,61.100 105.202,58.750 105.205,56.399 C 105.207,54.048 105.202,51.696 105.224,49.347 C 105.246,46.998 104.382,43.781 105.335,42.305 C 106.288,40.828 108.834,40.793 110.943,40.490 C 113.052,40.187 115.639,40.487 117.987,40.487 C 120.336,40.487 122.685,40.488 125.036,40.489 C 127.387,40.490 129.743,40.491 132.095,40.490 C 134.447,40.490 136.797,40.488 139.148,40.487 C 141.498,40.486 143.847,40.484 146.197,40.485 C 148.548,40.486 150.899,40.490 153.250,40.492 C 155.601,40.493 157.954,40.478 160.304,40.493 C 162.654,40.507 165.014,40.410 167.351,40.576 C 169.687,40.743 172.014,41.168 174.326,41.492 C 176.638,41.815 178.960,42.053 181.223,42.517 C 183.485,42.981 185.693,43.655 187.901,44.276 C 190.110,44.898 192.348,45.443 194.475,46.246 C 196.602,47.049 198.633,48.073 200.662,49.095 C 202.691,50.118 204.672,51.227 206.648,52.380 C 208.624,53.533 210.624,54.680 212.518,56.013 C 214.412,57.345 216.209,58.884 218.014,60.374 C 219.820,61.864 221.701,63.296 223.351,64.953 C 225.001,66.610 226.424,68.507 227.913,70.316 C 229.401,72.125 230.928,73.930 232.283,75.805 C 233.638,77.681 234.842,79.613 236.044,81.570 C 237.246,83.527 238.424,85.541 239.496,87.548 C 240.567,89.555 241.582,91.526 242.472,93.612 C 243.362,95.698 244.095,97.901 244.835,100.066 C 245.576,102.231 246.302,104.394 246.916,106.601 C 247.529,108.808 248.028,111.054 248.517,113.307 C 249.005,115.561 249.455,117.833 249.845,120.122 C 250.236,122.411 250.582,124.725 250.858,127.042 C 251.133,129.359 251.385,131.685 251.500,134.024 C 251.615,136.363 251.542,138.726 251.547,141.076 C 251.552,143.427 251.549,145.777 251.527,148.128 C 251.505,150.478 251.585,152.842 251.413,155.179 C 251.241,157.516 250.820,159.835 250.497,162.150 C 250.173,164.466 249.818,166.771 249.473,169.072 C 249.128,171.372 248.924,173.694 248.427,175.953 C 247.931,178.212 247.145,180.421 246.495,182.625 C 245.844,184.828 245.258,187.021 244.525,189.173 C 243.792,191.326 242.957,193.433 242.095,195.540 C 241.232,197.648 240.367,199.767 239.350,201.818 C 238.333,203.869 237.162,205.861 235.992,207.846 C 234.821,209.831 233.622,211.812 232.325,213.727 C 231.028,215.641 229.665,217.520 228.210,219.333 C 226.755,221.147 225.217,222.926 223.594,224.608 C 221.971,226.290 220.235,227.891 218.472,229.425 C 216.710,230.959 214.884,232.437 213.020,233.813 C 211.156,235.188 209.253,236.470 207.290,237.676 C 205.328,238.883 203.310,240.065 201.246,241.053 C 199.182,242.040 197.063,242.844 194.908,243.600 C 192.753,244.356 190.548,245.027 188.314,245.589 C 186.080,246.151 183.790,246.568 181.504,246.971 C 179.217,247.373 176.916,247.743 174.597,248.003 C 172.279,248.263 169.937,248.450 167.593,248.530 Z"/>
</g>
</svg>